<?xml version="1.0" encoding="utf-8"?>
<!-- Generator: Adobe Illustrator 18.1.1, SVG Export Plug-In . SVG Version: 6.00 Build 0)  -->
<svg version="1.1" id="Layer_1" xmlns="http://www.w3.org/2000/svg" xmlns:xlink="http://www.w3.org/1999/xlink" x="0px" y="0px"
	 viewBox="0 0 300 200" enable-background="new 0 0 300 200" xml:space="preserve">
<path fill="#CF0A2C" d="M138.6,89.8l-28.2-35.5c-1.1-1.3-2.7-2.1-4.4-2.1H35.7c-1.7,0-3.4,0.8-4.4,2.1l-28,35.5
	c-1.7,2.2-1.6,5.2,0.2,7.3L57.3,157l0,0c0.9,1.2,2.3,2,4,2c2.7,0,5-2.2,5-5V89.2c0-2.7-2.2-5-5-5H22l16.4-20.8h64.9l16.5,20.8H80.6
	c-2.7,0-5,2.2-5,5V154c0,2.7,2.2,5,5,5c1.6,0,3-0.8,3.9-1.9l0,0l53.9-60C140.3,95.1,140.4,92,138.6,89.8z M56.3,139L16,94.2h40.3
	V139z M125.9,94.2L85.6,139V94.2H125.9z"/>
<g>
	<g>
		<path fill="#E2A83F" d="M254.4,46.4c-1.9-5.7-8-8.8-13.7-7s-8.8,8-7,13.7l28.1,86.4c1.9,5.3,7.7,8.3,13.2,6.7
			c5.8-1.7,9.3-7.8,7.4-13.4C282.4,132.6,254.4,46.4,254.4,46.4z"/>
		<path fill="#3BAF85" d="M210.9,60.5c-1.9-5.7-8-8.8-13.7-7s-8.8,8-7,13.7l28.1,86.4c1.9,5.3,7.7,8.3,13.2,6.7
			c5.8-1.7,9.3-7.8,7.4-13.4C238.9,146.7,210.9,60.5,210.9,60.5z"/>
		<path fill="#CE215C" d="M289.8,118c5.7-1.9,8.8-8,7-13.7c-1.9-5.7-8-8.8-13.7-7l-86.4,28.1c-5.3,1.9-8.3,7.7-6.7,13.2
			c1.7,5.8,7.8,9.3,13.4,7.4C203.6,146,289.8,118,289.8,118z"/>
		<path fill="#462447" d="M214.7,142.4c5.6-1.8,12.9-4.2,20.7-6.7c-1.8-5.6-4.2-12.9-6.7-20.7l-20.7,6.7L214.7,142.4z"/>
		<path fill="#B9282A" d="M258.2,128.2c7.8-2.5,15.1-4.9,20.7-6.7c-1.8-5.6-4.2-12.9-6.7-20.7l-20.7,6.7L258.2,128.2z"/>
		<path fill="#73C3CB" d="M275.6,74.4c5.7-1.9,8.8-8,7-13.7c-1.9-5.7-8-8.8-13.7-7l-86.4,28.1c-5.3,1.9-8.3,7.7-6.7,13.2
			c1.7,5.8,7.8,9.3,13.4,7.4C189.4,102.4,275.6,74.4,275.6,74.4z"/>
		<path fill="#268C75" d="M200.5,98.8c5.6-1.8,12.9-4.2,20.7-6.7c-2.5-7.8-4.9-15.1-6.7-20.7l-20.7,6.7L200.5,98.8z"/>
		<path fill="#638139" d="M244,84.7c7.8-2.5,15.1-4.9,20.7-6.7c-2.5-7.8-4.9-15.1-6.7-20.7L237.3,64L244,84.7z"/>
	</g>
</g>
<polygon fill="#444444" points="139.9,119.5 139.9,109.9 156.7,109.9 156.6,102.2 176.8,115 156.8,127.8 156.8,119.5 "/>
</svg>
